<svg id="Layer_1" data-name="Layer 1" xmlns="http://www.w3.org/2000/svg" viewBox="0 0 378.82 134.18"><defs><style>.cls-1{fill:none;stroke:#f15a29;stroke-miterlimit:10;stroke-width:2px;}.cls-2,.cls-4{font-size:19.15px;fill:#f15a29;font-family:Roboto-Bold, Roboto;font-weight:700;}.cls-3{letter-spacing:0.01em;}.cls-4{text-decoration:underline;}.cls-5{letter-spacing:-0.01em;}.cls-6{letter-spacing:0em;}</style></defs><circle class="cls-1" cx="200.36" cy="36.61" r="4.61" transform="translate(118.69 223.2) rotate(-76.72)"/><text class="cls-2" transform="translate(110.92 30.17)">G<tspan class="cls-3" x="13.04" y="0">I</tspan><tspan x="18.8" y="0">Á VÉ</tspan></text><text class="cls-4" transform="translate(193.09 82.68)">30.000 VND/<tspan class="cls-5" x="110.92" y="0">v</tspan><tspan class="cls-6" x="120.47" y="0">é</tspan></text><line class="cls-1" x1="98.39" y1="36.61" x2="195.75" y2="36.61"/><rect class="cls-1" x="172.64" y="57.27" width="170.59" height="38.05"/><path class="cls-1" d="M93.19,17.71H22.82V36.53h43L45.12,59.23h0V74.37H64.35S75,78.46,74.57,87.05,68.65,98.71,59.85,101,27.32,90.12,27.32,90.12l-9.2,18S41.64,120.39,58,119.78,97.48,111.6,98.1,86.85,71.3,58.62,71.3,58.62L93.19,32.47"/></svg>