<svg id="Layer_1" data-name="Layer 1" xmlns="http://www.w3.org/2000/svg" viewBox="0 0 577.36 183.27"><defs><style>.cls-1{font-size:19.15px;}.cls-1,.cls-3{fill:#f15a29;font-family:Roboto-Bold, Roboto;font-weight:700;}.cls-2{letter-spacing:-0.01em;}.cls-3{font-size:17.13px;}.cls-4{letter-spacing:-0.01em;}.cls-5{letter-spacing:-0.01em;}.cls-6{fill:none;stroke:#f15a29;stroke-miterlimit:10;stroke-width:2px;}</style></defs><text class="cls-1" transform="translate(78.75 100.87) scale(1.11 1)">Á Q<tspan class="cls-2" x="30.88" y="0">U</tspan><tspan x="43.28" y="0">ÂN</tspan></text><text class="cls-3" transform="translate(41.18 126.96) scale(1.18 1)">5.000.000 VND</text><text class="cls-3" transform="translate(210.46 93.64) scale(1.18 1)">10.000.000 VND</text><text class="cls-3" transform="translate(390.95 127.61) scale(1.18 1)">3.000.000 VND</text><text class="cls-1" transform="translate(228.21 67.96) scale(1.08 1)">Q<tspan class="cls-4" x="13.22" y="0">U</tspan><tspan x="25.62" y="0">ÁN Q</tspan><tspan class="cls-5" x="70.02" y="0">U</tspan><tspan x="82.42" y="0">ÂN</tspan></text><text class="cls-1" transform="translate(414.35 103.74) scale(1.08 1)">QUÝ Q<tspan class="cls-4" x="55.66" y="0">U</tspan><tspan x="68.06" y="0">ÂN</tspan></text><circle class="cls-6" cx="72.56" cy="98.19" r="2.38"/><polyline class="cls-6" points="217.57 113.32 217.57 141.34 14.25 141.34 14.25 98.19 70.18 98.19"/><line class="cls-6" x1="160.81" y1="98.19" x2="179.93" y2="98.19"/><circle class="cls-6" cx="222.48" cy="66.96" r="2.38"/><circle class="cls-6" cx="350.8" cy="66.96" r="2.38"/><circle class="cls-6" cx="522.01" cy="98.5" r="2.38"/><polyline class="cls-6" points="353.18 67.6 389.59 67.6 389.59 108.84 186.89 108.84 186.89 66.96 220.1 66.96"/><line class="cls-6" x1="392.45" y1="98.5" x2="410.45" y2="98.5"/><polyline class="cls-6" points="524.39 98.5 555.89 98.5 555.89 141.75 353.18 141.75 353.18 112.3"/></svg>