<svg id="Layer_1" data-name="Layer 1" xmlns="http://www.w3.org/2000/svg" viewBox="0 0 288.24 158.36"><defs><style>.cls-1{font-size:19.15px;fill:#f15a29;font-family:Roboto-Bold, Roboto;font-weight:700;}.cls-2{letter-spacing:-0.01em;}.cls-3{letter-spacing:0em;}.cls-4{letter-spacing:0.01em;}.cls-5{letter-spacing:-0.03em;}.cls-6{fill:none;stroke:#f15a29;stroke-miterlimit:10;stroke-width:2px;}</style></defs><text class="cls-1" transform="translate(37.65 147.19) scale(1.19 1)">CƠ C<tspan class="cls-2" x="43.26" y="0">Ấ</tspan><tspan class="cls-3" x="55.99" y="0">U G</tspan><tspan class="cls-4" x="86.41" y="0">I</tspan><tspan class="cls-3" x="92.16" y="0">ẢI</tspan><tspan class="cls-5" x="110.63" y="0"> </tspan><tspan x="114.83" y="0">THƯỞNG</tspan></text><circle class="cls-6" cx="118.64" cy="120.99" r="4.61" transform="translate(-26.37 208.65) rotate(-76.72)"/><line class="cls-6" x1="31.5" y1="139.3" x2="24.34" y2="134.8"/><path class="cls-6" d="M24.34,134.8l12-20.25.2-.52s8.29,11.77,32.11,10.64,23.83-9.2,23.83-9.2l.11-2.87s.18-12.94-7.06-15.44a16.8,16.8,0,0,0-9-2.35c-5.62,0-43.36-.31-43.36-.31l43.36.31L33.14,94.5l6.34-64.23h74.45V51.34H63.41l-2.25,22.5s37.56-5.16,55.29,15.07c5.36,6.1,4.48,28.08,4.48,28.08"/></svg>